<svg version="1.1" id="图层_1" xmlns="http://www.w3.org/2000/svg" xmlns:xlink="http://www.w3.org/1999/xlink" x="0px" y="0px" width="342.857px" height="132.143px" viewBox="0 0 342.857 132.143" enable-background="new 0 0 342.857 132.143" xml:space="preserve">
<g>
	<g>
		<path fill="#F26722" d="M327.3,103.859c0.285,5.576-1.797,11.037-4.793,12.738c-3.941,2.238-11.447,1.658-19.287,0.773    c-2.834-0.32-5.398-1.594-5.219-5.842c0.105-2.535,2.748-3.438,4.725-3.029c8.578,1.771,11.369,1.361,13.08,0.967    c2.791-0.645,3.174-4.857,2.877-8.463l0.066-73.002c0-2.704-0.172-5.134-5.07-4.79l-75.172,0.064    c-2.703,0-4.488,0.258-4.553,4.382l0.043,82.862c0,3-0.941,5.369-4.125,5.605c-2.318,0.172-3.975-2.506-3.975-5.504V23.638    c-0.066-6.688,2.977-9.088,9.014-9.014h83.375c6.514,0.07,8.076,2.342,9.014,9.014V103.859z M253.391,62.988    c-3.953-7.109-7.006-14.053-12.414-21.263c-1.508-2.401-2.529-5.217-0.752-7.045c2.963-3.05,4.602-0.677,6.404,1.126    c2.4,3.008,6.207,8.164,11.018,16.571c2.4-6.604,4.523-13.091,6.326-20.302c0.902-2.999,2.748-4.488,5.139-3.871    c2.33,0.602,3.545,3.175,3.008,6.186c-0.881,4.935-3.443,12.031-5.424,17.419c-1.836,4.993-4.188,11.05-4.188,11.05    c3.318,7.667,7.377,15.884,10.02,24.957c1.008,3.467-0.053,4.957-2.465,6.439c-1.547,0.949-3.545,1.047-4.914-2.498    c-2.775-7.184-5.365-14.273-7.463-19.082c-6.611,12.02-10.674,18.467-13.977,22.369c-1.803,2.408-4.973,4.76-7.217,3.027    c-2.504-1.932-2.502-4.189-0.691-6.379C244.852,80.74,253.391,62.988,253.391,62.988z M291.469,66.39    c0,0-5.988-12.305-12.648-21.165c2.146,2.857-0.793-1.331-2.428-3.65c-1.998-2.836-0.92-4.447,0.883-6.25    c2.402-1.5,3.928-0.945,6.957,2.62c2.916,3.435,5.693,9.224,11.404,17.934c2.4-6.908,5.035-14.644,6.615-21.907    c0.592-2.717,2.521-4.086,5.004-3.475c2.352,0.58,3.516,3.057,2.918,5.761c-0.852,3.401-2.043,8.015-3.529,12.604    c-2.719,8.392-5.875,16.618-5.875,16.618c5.281,10.538,8.916,18.92,11.787,25.651c1.594,3.736,0.434,6.25-1.434,6.99    c-2.777,1.102-5.479-0.371-6.461-3.383c-1.818-5.576-4.703-11.326-6.523-15.641c-0.676-1.602-1.805-3.758-1.805-3.758    c-6.67,11.178-12.016,20.23-17.707,26.268c-1.902,2.016-3.979,3.291-6.363,1.768c-2.066-1.32-2.189-3.93-0.445-6.172    C279.604,87.183,285.6,77.185,291.469,66.39z"/>
	</g>
	<g>
		<path fill="#F26722" d="M56.66,62.649"/>
		<path fill="#F26722" d="M29.902,36.921l6.041-0.064c1.031,0.37,3.396,1.788,3.334,4.365c-0.048,2.029-0.935,4.221-4.285,4.236    l-5.066,0.06l0.041,19.109c0.618-0.306,2.033-1.01,3.544-2.013c0.84-0.559,1.835-0.94,2.142-0.999    c1.917-0.37,3.914,0.451,4.569,2.223c0.358,0.969,0.688,3.673-1.117,5.583c-2.335,2.475-5.716,4.135-9.179,6.1v32.518    c0.197,5.16-0.829,8.914-2.564,11.32c-2.172,3.014-8.618,2.533-13.681,0.295c-2.43-1.074-4.477-3.592-4.021-6.416    c0.515-3.201,2.774-4.42,5.262-3.803c2.793,0.932,2.835,1.59,4.94,1.375c0.615-0.063,1.503-1.203,1.471-4.834l-0.064-25.869    c-0.526,0.166-0.697,0.27-2.046,0.773c-1.571,0.588-3.577,1.236-4.816,1.531c-3.118,0.74-5.584-0.822-5.584-3.926    c0-3.307,1.203-4.158,3.377-5.402c3.411-1.549,7.475-3.352,9.143-4.025L21.301,45.57l-7.635-0.048    c-2.078,0-3.641-1.997-3.898-4.559c-0.118-1.172,1.063-3.576,3.479-4.107l8.07,0.032l0.032-22.842    c0.016-2.11,2.853-4.301,4.388-4.228c1.492,0.071,4.165,2.278,4.189,4.189L29.902,36.921z"/>
		<path fill="#F26722" d="M51.939,83.265L47.348,83.2c-2.525-0.311-5.332-2.514-5.171-4.607c0.17-2.209,2.76-3.996,4.291-3.996    h55.906c4.076,0.193,7.839,1.248,9.102,3.449c0.945,2.207,1.159,4.342-2.126,8.375c-4.861,5.969-10.567,12.242-21.167,18.525    c0,0,1.585,0.832,4.543,1.771c6.443,2.045,15.738,4.43,20.86,5.639c0.968,0.227,4.295,1.266,4.575,1.416    c1.37,0.742,2.84,2.697,1.842,5.842c-0.879,2.77-1.746,4.213-8.151,2.793c-13.875-3.076-21.591-6.314-34.064-11.748    c0,0-8.452,3.678-13.799,5.338c-6.076,1.885-13.194,3.75-21.424,5.09c-4.095,0.666-7.102-0.76-7.893-3.867    c-0.87-3.414,5.098-4.752,7.136-5.121c2.127-0.387,8.691-1.225,13.923-2.922c5.943-1.926,11.045-4.408,11.045-4.408    c-0.873-0.633-14.062-11.787-14.787-12.838c-1.401-2.029-1.777-4.189,0.056-6.443c1.192-1.467,4.551-1.258,6.838,0.838    c3.688,3.377,9.222,7.941,18.621,13.869c0,0,5.113-2.711,9.95-6.029c4.02-2.76,7.726-6.053,9.268-7.518    c1.095-1.043,1.192-2.191,1.042-2.621c-0.233-0.664-1.205-0.762-2.459-0.762L58.253,83.2L51.939,83.265z"/>
		<path fill="#F26722" d="M83.608,55.376h18.127c1.835,0,4.317-1.456,4.317-4.21l0.021-6.121L91.855,44.98    c-1.138,0-4.296-1.349-4.296-4.103c0.301-3.055,2.47-4.316,3.903-4.359l14.616-0.13l0.017-6.781    c-0.081-3.641-2.127-3.898-3.963-3.898l-8.731,0.07c-2.803-0.021-4.574-1.327-4.875-4.081c0-2.445,1.529-4.224,3.673-4.532    l11.48-0.043c7.345,0.033,10.964,4.649,10.964,9.848l0.054,27.46c-0.097,7.055-5.525,9.616-8.779,9.375l-22.358,0.097    l-0.064,3.544c-1.047,5.299-7.442,4.332-8.57,0.096l-0.038-3.619L50.21,63.73c-4.897-0.302-7.925-4.228-8.226-10.653V28.055    c0-4.589,1.929-7.939,5.284-8.913c6.658-1.934,13.281-3.255,17.569-4.789c2.754-0.61,4.054,0.379,5.198,2.404    c0.945,1.676,0.129,5.542-3.866,6.658c-3.454,0.967-9.743,2.359-12.253,3.061c-2.608,0.73-3.297,2.856-3.297,4.993v5.049h15.996    c0.602,0.192,4.229,1.709,3.898,4.413c-0.273,2.239-1.63,4.221-4.075,4.221l-15.771,0.016l-0.048,5.577    c0.516,2.676,2.159,4.459,3.995,4.459l20.296,0.064l0.042-39.713c0.73-4.94,7.818-4.683,8.57,0.043L83.608,55.376z"/>
	</g>
	<g>
		<path fill="#F26722" d="M125.549,25.531c-3.054,0-4.577-1.522-4.577-4.576c0-3.046,1.523-4.576,4.577-4.576l86.561-0.215    c3.496,0.139,7.244,1.232,7.883,3.737c1.18,4.64-2.613,7.479-4.619,8.763c-6.443,4.124-9.01,6.259-20.908,13.273    c-10.069,6.106-15.128,9.818-17.203,11.968c-0.214,0.222-0.248,1.026,1.83,3.661c2.177,2.759,3.41,5.317,4.752,7.738    c1.894,3.419,3.575,6.732,4.726,11.384c3.464,14.01-0.259,26.418-7.776,34.578c-2.571,2.793-7.84,5.041-15.163,5.35    c-7.022,0-15.658-0.807-23.926-4.447c-2.515-1.105-4.69-4.279-4.317-6.766c0.58-3.865,4.833-4.617,6.078-3.973    c13.207,6.832,29.93,6.578,33.339-1.762c6.954-17.01,0.489-30.434-7.322-39.357c-1.291-1.475-2.459-2.85-3.25-3.985    c-1.429-2.051-1.854-3.521-1.622-4.478c0.57-2.358,0.591-3.297,10.19-8.237c2.315-1.19,5.001-3.172,8.46-5.248    c4.938-3.086,18.312-10.35,19.114-11.939c0.305-0.606-1.16-0.644-1.258-0.644L125.549,25.531z"/>
	</g>
</g>
</svg>